<mxfile host="app.diagrams.net" modified="2023-06-12T16:29:37.528Z" agent="Mozilla/5.0 (Windows NT 10.0; Win64; x64; rv:109.0) Gecko/20100101 Firefox/114.0" etag="TjJctX4QmUe-WgfJJTkd" version="21.3.2" type="device">
  <diagram name="Seite-1" id="uukCMZsNi52-b3Le0xTW">
    <mxGraphModel dx="2954" dy="1078" grid="1" gridSize="10" guides="1" tooltips="1" connect="1" arrows="1" fold="1" page="1" pageScale="1" pageWidth="827" pageHeight="1169" math="0" shadow="0">
      <root>
        <mxCell id="0" />
        <mxCell id="1" parent="0" />
        <mxCell id="FsrfxaNs0TA1GNJ42hSI-8" style="edgeStyle=orthogonalEdgeStyle;rounded=0;orthogonalLoop=1;jettySize=auto;html=1;entryX=1;entryY=0.5;entryDx=0;entryDy=0;entryPerimeter=0;endArrow=none;endFill=0;exitX=1;exitY=0.5;exitDx=0;exitDy=0;" edge="1" parent="1" source="FsrfxaNs0TA1GNJ42hSI-10" target="FsrfxaNs0TA1GNJ42hSI-7">
          <mxGeometry relative="1" as="geometry" />
        </mxCell>
        <mxCell id="zNEgu30txlpyItWICn7m-1" value="Frontend" style="rounded=0;whiteSpace=wrap;html=1;labelPosition=center;verticalLabelPosition=top;align=center;verticalAlign=bottom;fillColor=none;strokeColor=#6c8ebf;fontSize=14;fontStyle=0;dashed=1;strokeWidth=2;" parent="1" vertex="1">
          <mxGeometry x="80" y="290" width="170" height="210" as="geometry" />
        </mxCell>
        <mxCell id="zNEgu30txlpyItWICn7m-11" value="Backend" style="rounded=0;whiteSpace=wrap;html=1;labelPosition=center;verticalLabelPosition=top;align=center;verticalAlign=bottom;fillColor=none;strokeColor=#82b366;fontSize=14;fontStyle=0;strokeWidth=2;dashed=1;" parent="1" vertex="1">
          <mxGeometry x="414" y="290" width="496" height="210" as="geometry" />
        </mxCell>
        <mxCell id="zNEgu30txlpyItWICn7m-21" value="nutzt" style="edgeStyle=orthogonalEdgeStyle;rounded=0;orthogonalLoop=1;jettySize=auto;html=1;entryX=0;entryY=0.5;entryDx=0;entryDy=0;endArrow=classic;endFill=1;fontSize=14;fontStyle=0;dashed=1;" parent="1" source="zNEgu30txlpyItWICn7m-12" target="zNEgu30txlpyItWICn7m-13" edge="1">
          <mxGeometry relative="1" as="geometry" />
        </mxCell>
        <mxCell id="zNEgu30txlpyItWICn7m-12" value="&lt;div&gt;PokemonController&lt;/div&gt;&lt;div&gt;&lt;span style=&quot;font-weight: normal;&quot;&gt;[.NET REST-Controller]&lt;/span&gt;&lt;/div&gt;&lt;div&gt;&lt;span style=&quot;font-weight: normal;&quot;&gt;&lt;br&gt;&lt;/span&gt;&lt;/div&gt;&lt;div&gt;&lt;span style=&quot;font-weight: normal;&quot;&gt;nimmt REST-Calls zur Abfrage von Pokemon-Daten an&lt;br&gt;&lt;/span&gt;&lt;/div&gt;" style="rounded=0;whiteSpace=wrap;html=1;fontSize=14;fontStyle=1;fillColor=#d5e8d4;strokeColor=#82b366;" parent="1" vertex="1">
          <mxGeometry x="460" y="310" width="160" height="170" as="geometry" />
        </mxCell>
        <mxCell id="zNEgu30txlpyItWICn7m-23" value="&lt;div&gt;Lese-/Schreibzugriff&lt;/div&gt;&lt;div&gt;[SQL]&lt;br&gt;&lt;/div&gt;" style="edgeStyle=orthogonalEdgeStyle;rounded=0;orthogonalLoop=1;jettySize=auto;html=1;fontSize=14;fontStyle=0;dashed=1;" parent="1" source="zNEgu30txlpyItWICn7m-13" target="zNEgu30txlpyItWICn7m-22" edge="1">
          <mxGeometry relative="1" as="geometry" />
        </mxCell>
        <mxCell id="FsrfxaNs0TA1GNJ42hSI-18" style="edgeStyle=orthogonalEdgeStyle;rounded=0;orthogonalLoop=1;jettySize=auto;html=1;entryX=1;entryY=0.5;entryDx=0;entryDy=0;entryPerimeter=0;endArrow=none;endFill=0;" edge="1" parent="1" source="zNEgu30txlpyItWICn7m-13" target="FsrfxaNs0TA1GNJ42hSI-17">
          <mxGeometry relative="1" as="geometry" />
        </mxCell>
        <mxCell id="zNEgu30txlpyItWICn7m-13" value="&lt;div&gt;PokemonService&lt;/div&gt;&lt;div&gt;&lt;span style=&quot;font-weight: normal;&quot;&gt;[.NET]&lt;/span&gt;&lt;/div&gt;&lt;div&gt;&lt;span style=&quot;font-weight: normal;&quot;&gt;&lt;br&gt;&lt;/span&gt;&lt;/div&gt;&lt;div&gt;&lt;span style=&quot;font-weight: normal;&quot;&gt;fr채gt Daten von Datenbank bzw. externer API ab&lt;/span&gt;&lt;br&gt;&lt;/div&gt;" style="rounded=0;whiteSpace=wrap;html=1;fontSize=14;fontStyle=1;fillColor=#d5e8d4;strokeColor=#82b366;" parent="1" vertex="1">
          <mxGeometry x="715" y="310" width="150" height="170" as="geometry" />
        </mxCell>
        <mxCell id="zNEgu30txlpyItWICn7m-22" value="&lt;div&gt;&lt;b&gt;SQL-Datenbank&lt;/b&gt;&lt;/div&gt;&lt;div&gt;[PostgreSQL]&lt;b&gt;&lt;br&gt;&lt;/b&gt;&lt;/div&gt;&lt;div&gt;&lt;br&gt;&lt;/div&gt;&lt;div&gt;Zwischenspeicher f체r bereits aufgerufene Pokemon-Daten&lt;br&gt;&lt;/div&gt;" style="shape=cylinder3;whiteSpace=wrap;html=1;boundedLbl=1;backgroundOutline=1;size=15;labelPosition=center;verticalLabelPosition=middle;align=center;verticalAlign=middle;fillColor=#f8cecc;strokeColor=#b85450;fontSize=14;fontStyle=0" parent="1" vertex="1">
          <mxGeometry x="704.5" y="600" width="171" height="140" as="geometry" />
        </mxCell>
        <mxCell id="FsrfxaNs0TA1GNJ42hSI-12" style="edgeStyle=orthogonalEdgeStyle;rounded=0;orthogonalLoop=1;jettySize=auto;html=1;exitX=0;exitY=0.5;exitDx=0;exitDy=0;exitPerimeter=0;endArrow=none;endFill=0;" edge="1" parent="1" source="FsrfxaNs0TA1GNJ42hSI-7" target="zNEgu30txlpyItWICn7m-12">
          <mxGeometry relative="1" as="geometry" />
        </mxCell>
        <mxCell id="FsrfxaNs0TA1GNJ42hSI-7" value="REST-API" style="shape=providedRequiredInterface;html=1;verticalLabelPosition=bottom;sketch=0;direction=west;fontSize=13;" vertex="1" parent="1">
          <mxGeometry x="320" y="385" width="20" height="20" as="geometry" />
        </mxCell>
        <mxCell id="FsrfxaNs0TA1GNJ42hSI-10" value="&lt;div&gt;&lt;b&gt;App.vue&lt;/b&gt;&lt;/div&gt;&lt;div&gt;[Vue Single File Component]&lt;/div&gt;&lt;div&gt;&lt;br&gt;&lt;/div&gt;&lt;div&gt;stellt Eingabemaske zur Verf체gung&lt;br&gt;&lt;/div&gt;" style="rounded=0;whiteSpace=wrap;html=1;fontSize=14;fontStyle=0;fillColor=#dae8fc;strokeColor=#6c8ebf;" vertex="1" parent="1">
          <mxGeometry x="95" y="330" width="140" height="130" as="geometry" />
        </mxCell>
        <mxCell id="FsrfxaNs0TA1GNJ42hSI-14" value="&lt;div&gt;Externe REST-API&lt;/div&gt;&lt;div&gt;&lt;span style=&quot;font-weight: normal;&quot;&gt;&lt;br&gt;&lt;/span&gt;&lt;/div&gt;&lt;div&gt;&lt;span style=&quot;font-weight: normal;&quot;&gt;&quot;PokeAPI&quot; stellt Pokemon-Daten zur Verf체gung&lt;/span&gt;&lt;/div&gt;" style="rounded=0;whiteSpace=wrap;html=1;fontSize=14;fontStyle=1;fillColor=#f5f5f5;strokeColor=#666666;fontColor=#333333;" vertex="1" parent="1">
          <mxGeometry x="1050" y="310" width="150" height="170" as="geometry" />
        </mxCell>
        <mxCell id="FsrfxaNs0TA1GNJ42hSI-19" style="edgeStyle=orthogonalEdgeStyle;rounded=0;orthogonalLoop=1;jettySize=auto;html=1;entryX=0;entryY=0.5;entryDx=0;entryDy=0;endArrow=none;endFill=0;" edge="1" parent="1" source="FsrfxaNs0TA1GNJ42hSI-17" target="FsrfxaNs0TA1GNJ42hSI-14">
          <mxGeometry relative="1" as="geometry" />
        </mxCell>
        <mxCell id="FsrfxaNs0TA1GNJ42hSI-17" value="REST-API" style="shape=providedRequiredInterface;html=1;verticalLabelPosition=bottom;sketch=0;direction=west;fontSize=13;" vertex="1" parent="1">
          <mxGeometry x="970" y="385" width="20" height="20" as="geometry" />
        </mxCell>
      </root>
    </mxGraphModel>
  </diagram>
</mxfile>
